<?xml version="1.0" encoding="UTF-8" standalone="no"?>
<svg
   xmlns:dc="http://purl.org/dc/elements/1.1/"
   xmlns:cc="http://creativecommons.org/ns#"
   xmlns:rdf="http://www.w3.org/1999/02/22-rdf-syntax-ns#"
   xmlns:svg="http://www.w3.org/2000/svg"
   xmlns="http://www.w3.org/2000/svg"
   id="svg11"
   xml:space="preserve"
   enable-background="new 0 0 200 200"
   viewBox="0 0 200 200"
   y="0px"
   x="0px"
   version="1.1"><metadata
     id="metadata15"><rdf:RDF><cc:Work
         rdf:about=""><dc:format>image/svg+xml</dc:format><dc:type
           rdf:resource="http://purl.org/dc/dcmitype/StillImage" /></cc:Work></rdf:RDF></metadata><defs
     id="defs495768" /><linearGradient
     spreadMethod="pad"
     y2="30%"
     x2="-10%"
     y1="120%"
     x1="30%"
     id="3d_gradient2-logo-B223986A97D14020BB8EBA736BFB6D4D"><stop
       id="stop495745"
       stop-opacity="1"
       stop-color="#ffffff"
       offset="0%" /><stop
       id="stop495747"
       stop-opacity="1"
       stop-color="#000000"
       offset="100%" /></linearGradient><linearGradient
     gradientTransform="rotate(-30)"
     spreadMethod="pad"
     y2="30%"
     x2="-10%"
     y1="120%"
     x1="30%"
     id="3d_gradient3-logo-B223986A97D14020BB8EBA736BFB6D4D"><stop
       id="stop495750"
       stop-opacity="1"
       stop-color="#ffffff"
       offset="0%" /><stop
       id="stop495752"
       stop-opacity="1"
       stop-color="#cccccc"
       offset="50%" /><stop
       id="stop495754"
       stop-opacity="1"
       stop-color="#000000"
       offset="100%" /></linearGradient><path
     style="fill:#6d9e79;stroke-width:0.7496509"
     d="m 100.20065,40.003494 c -0.469742,-0.0092 -1.013682,4.17e-4 -1.208741,0.02042 -0.194647,0.02042 -0.532259,0.06711 -0.75025,0.103782 -0.217572,0.03709 -0.578529,0.113369 -0.801527,0.169638 -0.222991,0.05627 -0.578941,0.16047 -0.790657,0.231327 -0.211739,0.07086 -0.55894,0.203403 -0.771541,0.294681 -0.212151,0.09128 -0.596864,0.27884 -0.854452,0.417225 -0.258,0.138378 -0.638133,0.364286 -0.844856,0.501832 -0.206739,0.137546 -0.553932,0.392217 -0.771916,0.565604 -0.217571,0.173394 -0.594368,0.513503 -0.836535,0.755648 -0.24258,0.242167 -0.591033,0.629377 -0.77439,0.860674 -0.183814,0.231327 -0.442234,0.58478 -0.57436,0.785259 -0.132126,0.200487 -0.343033,0.555184 -0.468487,0.788183 -0.125461,0.232992 -0.309688,0.612705 -0.408889,0.843582 -0.09961,0.231328 -0.240083,0.597285 -0.312605,0.812772 -0.07252,0.215907 -0.18631,0.617705 -0.252587,0.892834 -0.06627,0.275092 -0.153386,0.715654 -0.193395,0.979494 -0.05419,0.354705 -0.07336,0.733998 -0.07336,1.458821 0,0.728158 0.01876,1.102436 0.07377,1.45882 0.04043,0.26342 0.110454,0.638546 0.155883,0.833612 0.04502,0.194647 0.130042,0.518092 0.188394,0.718571 0.05835,0.200066 0.181311,0.556436 0.272589,0.791931 0.0917,0.235075 0.265091,0.624377 0.385545,0.865322 0.120454,0.240495 0.328025,0.615621 0.460571,0.833162 0.132958,0.217991 0.370537,0.567688 0.528091,0.777313 0.157967,0.209655 0.443066,0.556856 0.634377,0.771091 0.191311,0.214655 0.495999,0.522672 0.67773,0.684394 0.18173,0.162134 0.461402,0.398881 0.621873,0.526839 0.16047,0.127546 0.470158,0.350537 0.687729,0.495167 0.217991,0.14505 0.658554,0.399302 0.979494,0.565192 0.320941,0.16589 0.780237,0.378042 1.020725,0.471411 0.240495,0.09378 0.632713,0.226327 0.871994,0.29468 0.238831,0.06877 0.614369,0.16047 0.834061,0.203815 0.219656,0.04376 0.577696,0.104201 0.79523,0.135042 0.236747,0.03334 0.764869,0.05502 1.312942,0.05418 0.65647,-8.25e-4 1.05911,-0.0225 1.41714,-0.07545 0.27509,-0.04085 0.6598,-0.110873 0.85445,-0.15547 0.19507,-0.04502 0.52309,-0.130462 0.72941,-0.190067 0.20632,-0.0596 0.56269,-0.182562 0.79193,-0.273427 0.22925,-0.09045 0.63563,-0.27426 0.90281,-0.40847 0.26717,-0.13463 0.64229,-0.342201 0.83361,-0.461403 0.19131,-0.119209 0.51933,-0.345529 0.72857,-0.502251 0.20965,-0.157134 0.55686,-0.441814 0.77109,-0.633125 0.21466,-0.191311 0.52268,-0.495999 0.6844,-0.677729 0.16214,-0.181731 0.39888,-0.461403 0.52684,-0.621873 0.12755,-0.160471 0.35054,-0.470159 0.49517,-0.68773 0.14505,-0.217991 0.3993,-0.658553 0.5656,-0.979494 0.16589,-0.320941 0.37054,-0.761945 0.45474,-0.979494 0.0838,-0.217991 0.20632,-0.569772 0.27176,-0.781961 0.0654,-0.212151 0.16463,-0.606033 0.2209,-0.875292 0.0558,-0.26926 0.12671,-0.667722 0.15714,-0.885263 0.0329,-0.235075 0.055,-0.768617 0.0542,-1.312938 -7.5e-4,-0.649798 -0.0229,-1.062856 -0.0746,-1.417141 -0.04,-0.275091 -0.11004,-0.659805 -0.15547,-0.854452 -0.0451,-0.195066 -0.13004,-0.518091 -0.1884,-0.71857 -0.0583,-0.200067 -0.18006,-0.55352 -0.27051,-0.78481 -0.09,-0.231747 -0.25967,-0.611452 -0.37679,-0.844856 -0.1167,-0.232992 -0.26092,-0.508084 -0.32011,-0.611041 -0.0592,-0.103369 -0.21882,-0.356369 -0.3547,-0.562688 -0.13588,-0.206319 -0.35136,-0.506419 -0.47891,-0.666889 -0.12796,-0.16047 -0.3647,-0.44015 -0.52684,-0.621873 -0.16172,-0.18173 -0.46974,-0.486411 -0.6844,-0.677729 -0.21423,-0.191311 -0.56393,-0.478495 -0.77694,-0.638546 -0.21299,-0.16005 -0.59103,-0.414721 -0.83983,-0.565604 -0.24883,-0.151302 -0.62729,-0.358453 -0.84111,-0.46057 -0.21382,-0.102118 -0.57019,-0.257588 -0.79193,-0.345529 -0.22174,-0.08795 -0.57186,-0.208823 -0.77814,-0.26842 -0.20632,-0.06002 -0.53434,-0.145882 -0.72941,-0.190899 -0.19465,-0.04502 -0.55102,-0.112118 -0.79193,-0.148798 -0.24925,-0.03793 -0.80573,-0.07377 -1.2921,-0.08253 z M 87.664984,50.361421 c -0.01709,4.17e-4 -0.275092,0.172142 -0.573108,0.381797 -0.298017,0.209235 -0.804451,0.591032 -1.125376,0.848605 -0.320941,0.257168 -0.844857,0.70899 -1.164583,1.004082 -0.319689,0.295101 -0.81487,0.789458 -1.100338,1.099139 -0.285512,0.309268 -0.673141,0.75025 -0.861124,0.979493 -0.188394,0.229244 -0.482662,0.604789 -0.654385,0.834437 -0.171722,0.229663 -0.480579,0.670225 -0.686478,0.979494 -0.205899,0.308856 -0.468906,0.721074 -0.585192,0.916148 -0.115874,0.194647 -0.341781,0.598117 -0.501831,0.896133 -0.160051,0.298016 -0.40805,0.794855 -0.551436,1.104536 -0.142966,0.309268 -0.358453,0.806549 -0.478907,1.104535 -0.120042,0.298016 -0.314689,0.829039 -0.432646,1.179951 -0.117958,0.350949 -0.2901,0.913674 -0.38221,1.250417 -0.09253,0.336781 -0.232159,0.921546 -0.309688,1.300045 -0.07794,0.378041 -0.179646,0.940737 -0.226327,1.250418 -0.04627,0.309688 -0.112538,0.863223 -0.147134,1.230027 -0.0346,0.367209 -0.07502,1.042465 -0.09003,1.500501 -0.01584,0.481411 -0.0075,1.20289 0.02001,1.708455 0.02626,0.48141 0.07545,1.128299 0.109621,1.43798 0.03377,0.309688 0.10879,0.853178 0.166723,1.207913 0.05793,0.354704 0.169638,0.929042 0.248419,1.27583 0.07919,0.346781 0.227159,0.919072 0.329697,1.272083 0.102117,0.352621 0.260084,0.84778 0.350536,1.100338 0.09045,0.252167 0.25342,0.674393 0.361789,0.937813 0.10879,0.26342 0.278008,0.639377 0.376378,0.835261 0.09837,0.195899 0.295512,0.530595 0.438066,0.743579 0.142546,0.213403 0.428478,0.565192 0.636048,0.781961 0.207152,0.216739 0.523092,0.504755 0.702318,0.639797 0.179647,0.135042 0.452235,0.31594 0.606453,0.402217 0.153798,0.08586 0.447647,0.228824 0.652301,0.317193 0.204655,0.08795 0.580612,0.213823 0.835261,0.27926 0.254672,0.06544 0.68731,0.142133 0.961128,0.170058 0.297596,0.03084 0.672309,0.04002 0.930691,0.02334 0.238,-0.01542 0.586032,-0.05502 0.773565,-0.08753 0.187563,-0.03293 0.509755,-0.10837 0.715654,-0.167974 0.206319,-0.05961 0.515588,-0.164639 0.68731,-0.232992 0.172143,-0.06835 0.481411,-0.219243 0.68773,-0.335109 0.206319,-0.115873 0.516007,-0.315521 0.68773,-0.443066 0.172142,-0.127958 0.482243,-0.40305 0.689814,-0.611453 0.210906,-0.212151 0.499747,-0.56352 0.655217,-0.796954 0.152966,-0.230075 0.351781,-0.576444 0.441814,-0.770266 0.08961,-0.193395 0.211739,-0.498083 0.270924,-0.67731 0.0596,-0.178806 0.14963,-0.535175 0.200487,-0.791931 0.07794,-0.392217 0.09253,-0.60562 0.09253,-1.341725 0,-0.661057 -0.01834,-0.977395 -0.07502,-1.292098 -0.04126,-0.229244 -0.231327,-0.885713 -0.422638,-1.458821 -0.190899,-0.573108 -0.395546,-1.260013 -0.454319,-1.526739 -0.05877,-0.266756 -0.137126,-0.744831 -0.174226,-1.062855 -0.04835,-0.41389 -0.06127,-0.767343 -0.04502,-1.24502 0.0125,-0.36679 0.05418,-0.882789 0.09295,-1.146217 0.03834,-0.263419 0.132545,-0.725662 0.209235,-1.027021 0.07669,-0.301353 0.207571,-0.732747 0.290932,-0.958654 0.08336,-0.225907 0.270504,-0.654805 0.415141,-0.952806 0.14505,-0.298017 0.369706,-0.710654 0.499748,-0.916973 0.130042,-0.206319 0.363873,-0.544764 0.519343,-0.7519 0.15547,-0.207571 0.41847,-0.523511 0.58436,-0.702318 0.165891,-0.178807 0.473495,-0.483915 0.683142,-0.677729 0.209655,-0.193815 0.386798,-0.368042 0.393462,-0.38721 0.0067,-0.01876 -0.09045,-0.09212 -0.215487,-0.162974 -0.125462,-0.07086 -0.410134,-0.251756 -0.632293,-0.402638 -0.224146,-0.148431 -0.586227,-0.416806 -0.806625,-0.593723 -0.219647,-0.176168 -0.595222,-0.509013 -0.833611,-0.737657 -0.238389,-0.229393 -0.577981,-0.586227 -0.7534,-0.792381 -0.176917,-0.206154 -0.438545,-0.531502 -0.583228,-0.722663 -0.144683,-0.191161 -0.383072,-0.5375 -0.531503,-0.771391 -0.146931,-0.232392 -0.405561,-0.694926 -0.573482,-1.027771 -0.167922,-0.332096 -0.393567,-0.826116 -0.500018,-1.097489 -0.1072,-0.271374 -0.260128,-0.720415 -0.339591,-0.998535 -0.08021,-0.277371 -0.192661,-0.736158 -0.249634,-1.019526 -0.05752,-0.283008 -0.131294,-0.771915 -0.164639,-1.085794 -0.03334,-0.314269 -0.06086,-0.716486 -0.06127,-0.894034 -4.16e-4,-0.177562 -0.01459,-0.322604 -0.03168,-0.322192 z m 24.643276,0.290932 c -0.0113,0 -0.0208,0.145462 -0.0213,0.323025 -4.2e-4,0.177562 -0.0192,0.500999 -0.0417,0.71899 -0.0225,0.217571 -0.0692,0.564772 -0.10337,0.771091 -0.0346,0.206319 -0.0925,0.506419 -0.12921,0.666889 -0.0371,0.16047 -0.12379,0.488495 -0.1934,0.72941 -0.0696,0.240496 -0.20632,0.643966 -0.30426,0.896133 -0.0979,0.252168 -0.24676,0.608537 -0.33137,0.791931 -0.0846,0.183395 -0.258,0.521008 -0.38513,0.750251 -0.12754,0.229243 -0.36303,0.613537 -0.5235,0.854452 -0.16047,0.240496 -0.41556,0.596452 -0.56728,0.790657 -0.1513,0.193815 -0.46474,0.559772 -0.69606,0.812771 -0.23175,0.252588 -0.60354,0.618957 -0.82694,0.814046 -0.223,0.194647 -0.61772,0.513504 -0.8774,0.70857 -0.25925,0.194647 -0.6598,0.468075 -0.89028,0.607285 l -0.41806,0.25342 0.31511,0.267588 c 0.17339,0.147546 0.4539,0.415553 0.62396,0.595612 0.16963,0.180479 0.42305,0.467655 0.56268,0.638965 0.14005,0.170891 0.39431,0.520588 0.56603,0.776489 0.1713,0.256335 0.45557,0.756472 0.63146,1.112032 0.17631,0.355117 0.3993,0.880315 0.49558,1.167056 0.0967,0.286344 0.22216,0.717738 0.27926,0.958654 0.0567,0.240495 0.13212,0.625209 0.16714,0.854452 0.0346,0.229243 0.0754,0.707318 0.09,1.062855 0.0163,0.399714 0.007,0.844482 -0.0241,1.167056 -0.0275,0.286345 -0.0975,0.755274 -0.15547,1.042015 -0.0575,0.286344 -0.16756,0.727327 -0.24383,0.979494 -0.0767,0.252168 -0.19882,0.617705 -0.27135,0.812772 -0.0725,0.195066 -0.17714,0.503083 -0.23216,0.684393 -0.055,0.181731 -0.13129,0.500587 -0.16964,0.70857 -0.0479,0.260504 -0.07,0.606033 -0.0705,1.107835 0,0.498083 0.0213,0.84823 0.0679,1.104535 0.0379,0.206319 0.11712,0.543932 0.17673,0.750251 0.0596,0.206319 0.20923,0.586032 0.3326,0.844032 0.1238,0.258 0.32428,0.613537 0.44598,0.789457 0.12172,0.176311 0.37096,0.478495 0.55352,0.67189 0.18257,0.192982 0.48267,0.468074 0.66689,0.61104 0.18423,0.143379 0.4164,0.311353 0.51559,0.373461 0.0996,0.0621 0.36221,0.203403 0.58353,0.313857 0.22174,0.110453 0.57603,0.258839 0.78818,0.329696 0.21215,0.07086 0.5777,0.170471 0.81277,0.221327 0.35929,0.07794 0.55977,0.09295 1.26084,0.09461 0.6398,0.0013 0.91862,-0.01584 1.19914,-0.07252 0.2009,-0.04085 0.53851,-0.130461 0.75025,-0.199234 0.21174,-0.06877 0.57228,-0.21632 0.80153,-0.328025 0.22924,-0.111706 0.58436,-0.321773 0.78901,-0.467243 0.20506,-0.145462 0.52767,-0.418057 0.7169,-0.60562 0.18965,-0.187143 0.45599,-0.490999 0.59228,-0.674393 0.13588,-0.183815 0.34262,-0.500587 0.45933,-0.704402 0.1167,-0.203403 0.30384,-0.603117 0.41596,-0.888187 0.11213,-0.285092 0.2901,-0.780686 0.39556,-1.101612 0.10545,-0.32094 0.24925,-0.789832 0.31926,-1.042015 0.07,-0.252167 0.18257,-0.693149 0.24968,-0.979494 0.0675,-0.286763 0.17089,-0.78361 0.22965,-1.104535 0.0592,-0.320941 0.14339,-0.864872 0.18673,-1.208737 0.0438,-0.343865 0.0984,-0.869071 0.12171,-1.167057 0.0233,-0.298016 0.0546,-0.888636 0.0692,-1.312938 0.015,-0.438066 0.006,-1.103262 -0.0204,-1.539708 -0.0259,-0.422639 -0.085,-1.069977 -0.13171,-1.437981 -0.0471,-0.368041 -0.13172,-0.92282 -0.18799,-1.232051 -0.0567,-0.309688 -0.18589,-0.900331 -0.28717,-1.312939 -0.1017,-0.412638 -0.2901,-1.078672 -0.41931,-1.479661 -0.12921,-0.401385 -0.3572,-1.039091 -0.50683,-1.41714 -0.14964,-0.378461 -0.44432,-1.044114 -0.65481,-1.479661 -0.21049,-0.435562 -0.53893,-1.064129 -0.72941,-1.396299 -0.19048,-0.332613 -0.506,-0.84823 -0.70065,-1.146217 -0.19465,-0.298016 -0.56519,-0.823191 -0.82364,-1.167056 -0.25884,-0.343865 -0.62021,-0.803626 -0.80362,-1.021175 -0.1834,-0.217991 -0.52184,-0.597284 -0.7519,-0.843582 -0.2305,-0.246335 -0.66023,-0.677729 -0.95573,-0.958653 -0.2951,-0.280925 -0.69482,-0.644385 -0.88819,-0.807375 -0.19339,-0.162974 -0.53475,-0.438898 -0.75857,-0.613124 -0.22382,-0.174226 -0.56644,-0.42973 -0.76105,-0.56852 -0.19506,-0.138378 -0.36345,-0.251748 -0.37471,-0.251748 z M 74.354182,65.038154 c -0.971997,0.0029 -1.931026,0.02126 -2.131107,0.04043 -0.200067,0.01959 -0.556436,0.07419 -0.791932,0.121705 -0.235495,0.04751 -0.652721,0.161303 -0.926943,0.252588 -0.27426,0.09128 -0.705654,0.266756 -0.958654,0.389294 -0.252999,0.122957 -0.638132,0.340528 -0.855726,0.483914 -0.217571,0.142966 -0.527259,0.367622 -0.68773,0.499335 -0.16047,0.131294 -0.438066,0.384294 -0.616453,0.561856 -0.178806,0.177975 -0.433898,0.456822 -0.567276,0.620209 -0.133377,0.163386 -0.359705,0.474739 -0.50267,0.69273 -0.143379,0.217571 -0.360957,0.602704 -0.483915,0.855726 -0.122538,0.253 -0.298016,0.684394 -0.389294,0.958654 -0.09128,0.27426 -0.203403,0.686478 -0.249664,0.915698 -0.04585,0.229244 -0.103369,0.611041 -0.127125,0.848605 -0.02418,0.23716 -0.04376,1.198317 -0.04376,2.13613 v 1.703957 l 0.135462,-4.17e-4 c 0.0746,0 0.358453,-0.02792 0.631461,-0.0621 0.272588,-0.03418 0.844856,-0.09212 1.271258,-0.12921 0.461822,-0.0396 1.230027,-0.06752 1.900665,-0.06877 0.647301,-8.24e-4 1.284602,0.01959 1.500501,0.04835 0.206319,0.02751 0.417226,0.06002 0.468907,0.07294 l 0.09378,0.02334 4.17e-4,-1.578015 c 8.24e-4,-1.245021 0.01376,-1.63304 0.06252,-1.839344 0.03376,-0.143798 0.107537,-0.352201 0.163806,-0.463074 0.05627,-0.110873 0.195067,-0.303016 0.308436,-0.426394 0.11337,-0.123378 0.314689,-0.28968 0.446815,-0.369293 0.132546,-0.08002 0.364285,-0.177143 0.515175,-0.216739 0.235075,-0.06127 0.500999,-0.07169 1.868505,-0.07377 l 1.594282,-0.0025 -4.16e-4,-0.177143 c 0,-0.09753 -0.01834,-0.336361 -0.04043,-0.531427 -0.02167,-0.195067 -0.05835,-0.588948 -0.08128,-0.875293 -0.02751,-0.342613 -0.02792,-0.810672 -0.0013,-1.367513 0.02209,-0.46557 0.07877,-1.215859 0.125874,-1.667223 0.04668,-0.451403 0.09629,-0.947409 0.110034,-1.102062 l 0.02459,-0.281344 z m 25.569843,0.0046 -6.839815,-0.01084 -0.15005,0.328444 c -0.08253,0.180891 -0.204655,0.466823 -0.270924,0.636049 -0.06669,0.168807 -0.17047,0.457235 -0.230907,0.640629 -0.06044,0.183395 -0.156302,0.539764 -0.213403,0.791932 -0.0571,0.252167 -0.125462,0.695646 -0.151715,0.985716 -0.03585,0.388881 -0.03668,0.651469 -0.0029,1.000334 0.02501,0.260084 0.09544,0.731074 0.156722,1.046213 l 0.111285,0.573108 h 15.156442 l 0.0221,-0.07294 c 0.0121,-0.04002 0.0734,-0.335529 0.1363,-0.65647 0.1017,-0.521427 0.11379,-0.676477 0.11421,-1.45882 0,-0.728579 -0.015,-0.957005 -0.0917,-1.362941 -0.0508,-0.268007 -0.16798,-0.718158 -0.26051,-1.000334 -0.0925,-0.281764 -0.27551,-0.71899 -0.4068,-0.971173 l -0.23841,-0.458486 z m 25.630565,-0.0105 h -1.67764 v 0.08211 c 0,0.04502 0.0467,0.368453 0.10337,0.71899 0.0571,0.350117 0.12379,0.899431 0.14837,1.220432 0.0259,0.337193 0.0342,0.987815 0.02,1.542182 -0.0137,0.527259 -0.0438,1.230402 -0.0667,1.563022 -0.0225,0.332193 -0.0521,0.665225 -0.0654,0.73983 l -0.0238,0.135462 1.57802,4.17e-4 c 1.24502,8.25e-4 1.63304,0.01376 1.83934,0.06252 0.1438,0.03376 0.3522,0.107537 0.46308,0.163806 0.11086,0.05627 0.30301,0.195067 0.42639,0.308437 0.12337,0.113369 0.28968,0.314688 0.36928,0.446814 0.08,0.132546 0.17715,0.364285 0.21674,0.515175 0.0613,0.235076 0.0717,0.500999 0.0738,1.868505 l 0.002,1.594283 0.17714,-4.17e-4 c 0.0975,0 0.33636,-0.01834 0.53143,-0.04043 0.19506,-0.02167 0.58895,-0.05835 0.87529,-0.08128 0.34261,-0.02751 0.81067,-0.02793 1.36751,-0.0013 0.46557,0.02209 1.21579,0.07877 1.66723,0.125873 0.45139,0.04668 0.94741,0.09629 1.10206,0.110034 l 0.28134,0.02459 V 74.4479 c 0,-0.926119 -0.0196,-1.890245 -0.0433,-2.142353 -0.0238,-0.252167 -0.0809,-0.646049 -0.12712,-0.875292 -0.0463,-0.229243 -0.15881,-0.641461 -0.25009,-0.915699 -0.0913,-0.27426 -0.26675,-0.705654 -0.3893,-0.958653 -0.12295,-0.253 -0.33469,-0.628545 -0.47099,-0.834887 -0.13629,-0.206318 -0.3597,-0.516007 -0.49725,-0.687729 -0.13712,-0.172143 -0.39512,-0.458067 -0.57311,-0.636049 -0.17797,-0.177975 -0.45806,-0.433058 -0.62228,-0.567276 -0.16423,-0.133798 -0.47641,-0.360537 -0.6944,-0.503915 -0.21757,-0.142966 -0.60229,-0.360957 -0.85446,-0.483915 -0.25216,-0.123377 -0.68356,-0.298436 -0.95865,-0.389713 -0.27509,-0.09087 -0.68773,-0.203403 -0.91697,-0.249664 -0.22925,-0.04627 -0.62313,-0.10337 -0.87529,-0.127126 -0.25217,-0.02376 -1.21331,-0.04335 -2.13614,-0.04335 z M 68.814262,77.79279 c -0.332193,0.0033 -0.857376,0.02084 -1.167057,0.03918 -0.309268,0.01834 -0.833162,0.06377 -1.163758,0.100866 -0.330528,0.03751 -0.827389,0.104621 -1.104535,0.15005 -0.276756,0.04502 -0.803626,0.146714 -1.170805,0.225495 -0.366789,0.07877 -0.957829,0.227159 -1.312939,0.329277 -0.355117,0.102117 -0.870719,0.263419 -1.145766,0.358872 -0.275092,0.09503 -0.725242,0.263008 -1.000334,0.373042 -0.275092,0.110034 -0.744831,0.311352 -1.043664,0.446814 -0.298849,0.135462 -0.814421,0.393462 -1.146216,0.572688 -0.331361,0.179227 -0.822742,0.459739 -1.091642,0.622706 -0.26884,0.163386 -0.766068,0.487662 -1.104536,0.721074 -0.338445,0.232991 -0.906103,0.657301 -1.261662,0.942836 -0.355117,0.285512 -0.918623,0.77154 -1.251692,1.080397 -0.333025,0.308436 -0.830314,0.803625 -1.104536,1.100337 -0.27426,0.296352 -0.655217,0.726075 -0.846131,0.954906 -0.190899,0.228411 -0.483075,0.593528 -0.649385,0.811497 -0.166303,0.217571 -0.40847,0.54768 -0.53768,0.733578 l -0.235075,0.337193 0.593116,0.02709 c 0.325941,0.01501 0.781511,0.0546 1.012029,0.08795 0.230907,0.03335 0.615208,0.100866 0.854452,0.150051 0.239243,0.0496 0.651049,0.15505 0.914499,0.234663 0.26384,0.07961 0.657721,0.210907 0.875292,0.291764 0.217991,0.08086 0.628958,0.258 0.91405,0.393462 0.285092,0.135881 0.758197,0.389713 1.05161,0.564772 0.293428,0.175058 0.748167,0.479326 1.010754,0.676477 0.262588,0.197151 0.675646,0.534344 0.917798,0.749419 0.242167,0.215075 0.632293,0.604788 0.866971,0.866146 0.235076,0.261756 0.586864,0.688982 0.781961,0.949508 0.195067,0.260504 0.468907,0.662302 0.608117,0.892834 l 0.253832,0.41931 0.241747,-0.290512 c 0.133378,-0.160051 0.426394,-0.467242 0.651049,-0.683142 0.225076,-0.215907 0.583529,-0.532679 0.796505,-0.70357 0.213403,-0.17089 0.593948,-0.44515 0.846131,-0.608956 0.252167,-0.163806 0.655637,-0.39847 0.896132,-0.521008 0.240916,-0.122957 0.597285,-0.288848 0.791931,-0.368453 0.195067,-0.08002 0.541016,-0.205067 0.768992,-0.278008 0.228412,-0.07294 0.622293,-0.176723 0.875293,-0.230908 0.253419,-0.05376 0.638965,-0.121293 0.856551,-0.15005 0.217571,-0.02876 0.714822,-0.05085 1.104536,-0.0496 0.496831,0.0016 0.883238,0.02835 1.292098,0.09003 0.32094,0.04835 0.827764,0.152135 1.1262,0.231328 0.298017,0.07877 0.78571,0.230075 1.083696,0.335948 0.297596,0.105866 0.672309,0.220075 0.832787,0.254252 0.16047,0.03376 0.591864,0.08128 0.958654,0.105453 0.366789,0.02418 0.920271,0.03168 1.229577,0.01709 0.309688,-0.01501 0.702318,-0.04627 0.873643,-0.07002 0.170891,-0.02334 0.488495,-0.08878 0.706486,-0.145462 0.217571,-0.05669 0.570604,-0.17589 0.783985,-0.265091 0.212991,-0.08919 0.53726,-0.250916 0.720242,-0.359705 0.182975,-0.109202 0.490167,-0.324689 0.68231,-0.479327 0.19215,-0.154638 0.468075,-0.41347 0.612285,-0.574772 0.14463,-0.161723 0.369293,-0.442235 0.498915,-0.623957 0.130042,-0.181731 0.320941,-0.495999 0.42431,-0.698982 0.103782,-0.202983 0.237159,-0.500168 0.296352,-0.660638 0.0596,-0.16047 0.147134,-0.432646 0.194647,-0.604368 0.04751,-0.172143 0.114202,-0.490999 0.147546,-0.70857 0.03334,-0.217991 0.06086,-0.659806 0.06086,-0.982418 4.17e-4,-0.350537 -0.02667,-0.744831 -0.06669,-0.979494 -0.03709,-0.216319 -0.112958,-0.552268 -0.168807,-0.747334 -0.05585,-0.195067 -0.201731,-0.563108 -0.324276,-0.818619 -0.122126,-0.255504 -0.302604,-0.583528 -0.400554,-0.72941 -0.09837,-0.145882 -0.301764,-0.413058 -0.453066,-0.593529 -0.150882,-0.180478 -0.445982,-0.47141 -0.65605,-0.646049 -0.210067,-0.174639 -0.541847,-0.417638 -0.737326,-0.539764 -0.195899,-0.122538 -0.596033,-0.33178 -0.889461,-0.465158 -0.293848,-0.133378 -0.777763,-0.330529 -1.075749,-0.438479 -0.298016,-0.107537 -0.824466,-0.276756 -1.16953,-0.375957 -0.345117,-0.0992 -0.935715,-0.245915 -1.312939,-0.326773 -0.376797,-0.08044 -0.938263,-0.184226 -1.247944,-0.230495 -0.309268,-0.04668 -0.834886,-0.112957 -1.167056,-0.147134 -0.332193,-0.0346 -1.007456,-0.08211 -1.500502,-0.105866 -0.492663,-0.02334 -1.168331,-0.04002 -1.500501,-0.03668 z m 62.208278,0.0021 c -0.36679,0.0046 -0.79815,0.01334 -0.95865,0.01959 -0.16047,0.0062 -0.59186,0.03209 -0.95865,0.05669 -0.36679,0.02501 -0.95738,0.08211 -1.31294,0.126706 -0.35512,0.04502 -0.9157,0.129209 -1.24585,0.187562 -0.32969,0.05793 -0.93076,0.188815 -1.33588,0.290512 -0.40514,0.101698 -1.00783,0.275924 -1.3388,0.38763 -0.33094,0.111286 -0.81112,0.288848 -1.06705,0.394301 -0.25592,0.105034 -0.62187,0.269672 -0.81277,0.365538 -0.19131,0.09587 -0.47891,0.258839 -0.63938,0.362621 -0.16047,0.103369 -0.42306,0.295512 -0.58353,0.427226 -0.16047,0.131294 -0.39638,0.349285 -0.52392,0.483914 -0.12796,0.13463 -0.34554,0.397218 -0.4835,0.583109 -0.13796,0.186311 -0.34553,0.523923 -0.4614,0.75025 -0.11587,0.22674 -0.26801,0.575193 -0.33803,0.77439 -0.07,0.199647 -0.16506,0.557268 -0.21091,0.79523 -0.0459,0.237999 -0.0963,0.628957 -0.1117,0.86907 -0.0171,0.263007 -0.008,0.634377 0.0229,0.934515 0.028,0.27384 0.10421,0.707738 0.16881,0.963676 0.0646,0.256336 0.19965,0.659385 0.3001,0.896133 0.10045,0.236747 0.26217,0.566436 0.35929,0.732326 0.0975,0.16589 0.28759,0.448486 0.42305,0.628545 0.13588,0.179646 0.42389,0.496419 0.64063,0.703982 0.21716,0.207151 0.55102,0.480159 0.74234,0.606872 0.19131,0.126294 0.48516,0.298437 0.65354,0.38263 0.1684,0.08419 0.49642,0.215907 0.72941,0.293428 0.233,0.07753 0.56936,0.170471 0.74734,0.206739 0.17839,0.03626 0.56311,0.08586 0.85445,0.110453 0.31177,0.02626 0.83983,0.03334 1.28085,0.01709 0.41264,-0.01542 0.90611,-0.05502 1.09704,-0.08795 0.19048,-0.03292 0.70649,-0.18089 1.14622,-0.329276 0.43973,-0.147966 1.01285,-0.317193 1.27373,-0.375958 0.26092,-0.05877 0.67355,-0.136294 0.91697,-0.172142 0.26842,-0.03918 0.73775,-0.06544 1.19292,-0.06627 0.48183,-0.0013 0.94156,0.02376 1.28543,0.07003 0.29427,0.03918 0.754,0.125042 1.02117,0.190479 0.26718,0.06544 0.68315,0.18673 0.92365,0.269671 0.24091,0.08253 0.71899,0.288016 1.06285,0.456823 0.34387,0.168806 0.85026,0.456822 1.12538,0.639377 0.27509,0.182975 0.71107,0.513923 0.96862,0.735662 0.25759,0.22174 0.61396,0.566437 0.79194,0.766069 0.17798,0.199234 0.39263,0.446402 0.47683,0.549351 0.0846,0.102538 0.16172,0.177563 0.17172,0.166303 0.01,-0.01084 0.12796,-0.198403 0.26175,-0.415974 0.13421,-0.217991 0.40639,-0.611872 0.60562,-0.875292 0.19923,-0.26384 0.52017,-0.652721 0.71357,-0.864423 0.1934,-0.211319 0.53726,-0.556016 0.76487,-0.765243 0.22757,-0.209235 0.61979,-0.535176 0.872,-0.724823 0.25216,-0.189227 0.61812,-0.446814 0.81277,-0.571856 0.19507,-0.125042 0.52309,-0.320108 0.72941,-0.433058 0.20632,-0.112958 0.58144,-0.301353 0.83361,-0.418471 0.25217,-0.117125 0.67023,-0.290932 0.92867,-0.385545 0.25883,-0.09503 0.63396,-0.220075 0.83361,-0.278008 0.20007,-0.05793 0.56686,-0.151302 0.8157,-0.207151 0.24841,-0.05627 0.70815,-0.13921 1.02117,-0.184227 0.31302,-0.04543 0.76112,-0.09503 0.99614,-0.110453 0.23507,-0.01584 0.4268,-0.04002 0.42639,-0.05376 -4.2e-4,-0.01417 -0.17214,-0.26926 -0.3818,-0.567276 -0.20923,-0.298016 -0.59103,-0.804451 -0.8486,-1.125376 -0.25718,-0.320941 -0.70982,-0.845681 -1.00536,-1.165782 -0.29551,-0.320521 -0.79943,-0.824016 -1.11998,-1.119529 -0.32011,-0.295512 -0.84485,-0.748586 -1.16578,-1.007006 -0.32094,-0.25842 -0.78024,-0.609369 -1.02117,-0.779412 -0.2405,-0.170471 -0.64397,-0.442234 -0.89614,-0.603536 -0.25216,-0.161723 -0.64146,-0.399714 -0.86532,-0.528512 -0.22382,-0.12879 -0.65522,-0.363041 -0.95865,-0.520175 -0.30343,-0.157134 -0.85198,-0.418058 -1.21871,-0.57978 -0.36679,-0.161302 -0.94951,-0.396386 -1.29457,-0.52184 -0.34553,-0.125873 -0.9199,-0.31552 -1.27711,-0.422225 -0.35679,-0.106706 -0.92784,-0.259672 -1.26833,-0.339697 -0.34095,-0.08044 -0.93864,-0.200899 -1.32838,-0.267588 -0.38972,-0.06711 -0.98032,-0.151302 -1.31294,-0.187143 -0.33219,-0.03585 -0.91405,-0.08378 -1.2921,-0.106286 -0.37804,-0.0225 -0.98781,-0.03751 -1.35462,-0.03334 z M 50.689952,89.520178 c -0.469739,-0.0092 -1.014053,4.17e-4 -1.208737,0.02042 -0.194647,0.02042 -0.53226,0.06711 -0.750251,0.103782 -0.217571,0.03709 -0.578528,0.113369 -0.801527,0.169638 -0.222991,0.05627 -0.57894,0.16047 -0.790656,0.231327 -0.211739,0.07086 -0.55894,0.203403 -0.771541,0.294681 -0.212151,0.09128 -0.596865,0.27884 -0.854452,0.417225 -0.258,0.138378 -0.638133,0.364286 -0.844857,0.501832 -0.206738,0.137546 -0.553932,0.392217 -0.771915,0.565604 -0.217571,0.173394 -0.594369,0.513503 -0.836536,0.755648 -0.242579,0.242167 -0.591032,0.629377 -0.774389,0.860674 -0.183815,0.231327 -0.442234,0.58478 -0.57436,0.785259 -0.132126,0.200487 -0.343033,0.555184 -0.468487,0.788183 -0.125462,0.232992 -0.309688,0.612705 -0.40889,0.843583 -0.09961,0.231327 -0.240083,0.597284 -0.312604,0.812771 -0.07252,0.215907 -0.186311,0.617705 -0.252587,0.892834 -0.06627,0.275092 -0.153386,0.715655 -0.193395,0.979494 -0.05418,0.354705 -0.07336,0.733998 -0.07336,1.458817 0,0.72816 0.01876,1.10244 0.07377,1.45883 0.04043,0.26342 0.110454,0.63854 0.155882,0.83361 0.04502,0.19464 0.130042,0.51809 0.188395,0.71857 0.05835,0.20006 0.181311,0.55643 0.272588,0.79193 0.0917,0.23508 0.265092,0.62438 0.385546,0.86532 0.120454,0.2405 0.328024,0.61562 0.46057,0.83316 0.132958,0.21799 0.370538,0.5677 0.528092,0.77732 0.157966,0.20965 0.443066,0.55685 0.634377,0.77109 0.191311,0.21465 0.495999,0.52268 0.677729,0.6844 0.181731,0.16213 0.461403,0.39888 0.621873,0.52684 0.16047,0.12754 0.470159,0.35053 0.68773,0.49516 0.217991,0.14505 0.658553,0.39931 0.979494,0.56519 0.32094,0.16589 0.780236,0.37805 1.020724,0.47141 0.240496,0.0938 0.632713,0.22633 0.871994,0.29468 0.238832,0.0687 0.614369,0.16047 0.834062,0.20382 0.219655,0.0438 0.577696,0.1042 0.79523,0.13504 0.236747,0.0334 0.764869,0.055 1.312938,0.0542 0.65647,-7.5e-4 1.059107,-0.0225 1.41714,-0.0754 0.275092,-0.0409 0.659806,-0.11087 0.854452,-0.15546 0.195067,-0.0451 0.523092,-0.13046 0.729411,-0.19007 0.206319,-0.0596 0.562688,-0.18256 0.791931,-0.27343 0.229243,-0.0904 0.635629,-0.27425 0.902805,-0.40847 0.267175,-0.13462 0.642301,-0.34219 0.833611,-0.4614 0.191311,-0.1192 0.519344,-0.34553 0.728579,-0.50225 0.209655,-0.15714 0.556855,-0.44182 0.771091,-0.63313 0.214655,-0.19131 0.522671,-0.496 0.684393,-0.67773 0.162135,-0.18172 0.398882,-0.4614 0.52684,-0.62187 0.127546,-0.16047 0.350537,-0.47016 0.495167,-0.68773 0.14505,-0.21799 0.399302,-0.65855 0.565604,-0.97949 0.16589,-0.32094 0.370538,-0.76195 0.454738,-0.9795 0.08378,-0.21799 0.206319,-0.56977 0.271756,-0.78196 0.06544,-0.21215 0.164639,-0.60603 0.220907,-0.87529 0.05585,-0.26925 0.126706,-0.66772 0.157135,-0.88526 0.03292,-0.23508 0.05502,-0.76862 0.05418,-1.312941 -8.25e-4,-0.649798 -0.02292,-1.062855 -0.07461,-1.417141 -0.04002,-0.275091 -0.110033,-0.659805 -0.15547,-0.854452 -0.04502,-0.195066 -0.130042,-0.518091 -0.188395,-0.71857 -0.05835,-0.200067 -0.180058,-0.55352 -0.270504,-0.78481 -0.08996,-0.232391 -0.260129,-0.611715 -0.377074,-0.845606 -0.116946,-0.232392 -0.260879,-0.507513 -0.320101,-0.610965 -0.05922,-0.102702 -0.218898,-0.356084 -0.354585,-0.562238 -0.135687,-0.206154 -0.351586,-0.506764 -0.479027,-0.66719 -0.12819,-0.160425 -0.36433,-0.440045 -0.527004,-0.62146 C 58.054197,92.716541 57.74609,92.412183 57.53094,92.221022 57.31729,92.029112 56.967203,91.741995 56.754302,91.58232 56.541401,91.421894 56.163577,91.167763 55.914693,91.016333 55.665809,90.864904 55.287235,90.658 55.073585,90.556048 c -0.214401,-0.101953 -0.570485,-0.25788 -0.792381,-0.34559 -0.221897,-0.08771 -0.571984,-0.209152 -0.778138,-0.268375 -0.206154,-0.05997 -0.534501,-0.146181 -0.72941,-0.191161 -0.19416,-0.04498 -0.550994,-0.111698 -0.791632,-0.14843 -0.249633,-0.03823 -0.805874,-0.07422 -1.292398,-0.08246 z m 99.036378,0 c -0.46974,-0.0092 -1.01367,4.17e-4 -1.20873,0.02042 -0.19465,0.02042 -0.53226,0.06711 -0.75025,0.103782 -0.21758,0.03709 -0.57853,0.113369 -0.80153,0.169638 -0.22299,0.05627 -0.57894,0.16047 -0.79066,0.231327 -0.21174,0.07086 -0.55894,0.203403 -0.77154,0.294681 -0.21215,0.09128 -0.59686,0.27884 -0.85445,0.417225 -0.258,0.138378 -0.63813,0.364286 -0.84486,0.501832 -0.20673,0.137546 -0.55393,0.392217 -0.77191,0.565604 -0.21757,0.173394 -0.59437,0.513503 -0.83654,0.755648 -0.24258,0.242167 -0.59103,0.629377 -0.77439,0.860674 -0.18381,0.231327 -0.44223,0.58478 -0.57436,0.785259 -0.13212,0.200487 -0.34303,0.555184 -0.46848,0.788183 -0.12547,0.232992 -0.30969,0.612705 -0.40889,0.843583 -0.0996,0.231327 -0.24008,0.597284 -0.31261,0.812771 -0.0725,0.215907 -0.18631,0.617705 -0.25258,0.892834 -0.0663,0.275092 -0.15338,0.715655 -0.1934,0.979494 -0.0542,0.354705 -0.0733,0.733998 -0.0733,1.458817 0,0.72816 0.0187,1.10244 0.0738,1.45883 0.0404,0.26342 0.11045,0.63854 0.15588,0.83361 0.045,0.19464 0.13004,0.51809 0.1884,0.71857 0.0583,0.20006 0.18131,0.55643 0.27259,0.79193 0.0917,0.23508 0.26509,0.62438 0.38555,0.86532 0.12045,0.2405 0.32802,0.61562 0.46057,0.83316 0.13296,0.21799 0.37054,0.5677 0.52809,0.77732 0.15797,0.20965 0.44307,0.55685 0.63438,0.77109 0.19131,0.21465 0.496,0.52268 0.67773,0.6844 0.18172,0.16213 0.4614,0.39888 0.62187,0.52684 0.16047,0.12754 0.47016,0.35053 0.68773,0.49516 0.21799,0.14505 0.65855,0.39931 0.97949,0.56519 0.32094,0.16589 0.78024,0.37805 1.02073,0.47141 0.2405,0.0938 0.63271,0.22633 0.87199,0.29468 0.23882,0.0687 0.61437,0.16047 0.83406,0.20382 0.21966,0.0438 0.5777,0.1042 0.79523,0.13504 0.23675,0.0334 0.76487,0.055 1.31294,0.0542 0.65647,-7.5e-4 1.05911,-0.0225 1.41714,-0.0754 0.27509,-0.0409 0.65981,-0.11087 0.85445,-0.15546 0.19507,-0.0451 0.52309,-0.13046 0.72941,-0.19007 0.20632,-0.0596 0.56269,-0.18256 0.79193,-0.27343 0.22925,-0.0904 0.63563,-0.27425 0.90281,-0.40847 0.26717,-0.13462 0.64229,-0.34219 0.83361,-0.4614 0.19131,-0.1192 0.51934,-0.34553 0.72857,-0.50225 0.20966,-0.15714 0.55686,-0.44182 0.77109,-0.63313 0.21466,-0.19131 0.52268,-0.496 0.6844,-0.67773 0.16214,-0.18172 0.39889,-0.4614 0.52684,-0.62187 0.12755,-0.16047 0.35054,-0.47016 0.49517,-0.68773 0.14505,-0.21799 0.3993,-0.65855 0.5656,-0.97949 0.1659,-0.32094 0.37054,-0.76195 0.45474,-0.9795 0.0838,-0.21799 0.20632,-0.56977 0.27176,-0.78196 0.0654,-0.21215 0.16464,-0.60603 0.22091,-0.87529 0.0558,-0.26925 0.1267,-0.66772 0.15713,-0.88526 0.0329,-0.23508 0.055,-0.76862 0.0542,-1.312941 -7.5e-4,-0.649798 -0.0229,-1.062855 -0.0746,-1.417141 -0.04,-0.275091 -0.11004,-0.659805 -0.15547,-0.854452 -0.045,-0.195066 -0.13004,-0.518091 -0.18839,-0.71857 -0.0583,-0.200067 -0.18007,-0.55352 -0.27052,-0.78481 -0.09,-0.231747 -0.25967,-0.611452 -0.37679,-0.844856 -0.1167,-0.232992 -0.26092,-0.508084 -0.3201,-0.611041 -0.0592,-0.103369 -0.21883,-0.356369 -0.35471,-0.562688 -0.13587,-0.206318 -0.35136,-0.506419 -0.47891,-0.666889 -0.12795,-0.16047 -0.3647,-0.44015 -0.52684,-0.621873 -0.16172,-0.18173 -0.46974,-0.486411 -0.6844,-0.677729 -0.21423,-0.191311 -0.56393,-0.478495 -0.77694,-0.638545 -0.21299,-0.160051 -0.59103,-0.414722 -0.83983,-0.565605 -0.24883,-0.151302 -0.62729,-0.358453 -0.84111,-0.46057 -0.21382,-0.102118 -0.57019,-0.257588 -0.79193,-0.345529 -0.22174,-0.08795 -0.57186,-0.208823 -0.77814,-0.26842 -0.20632,-0.06002 -0.53434,-0.145882 -0.72941,-0.190899 -0.19464,-0.04502 -0.55101,-0.112118 -0.79193,-0.148798 -0.24925,-0.03793 -0.80572,-0.07377 -1.2921,-0.08253 z m -80.639945,2.542816 c -0.32094,-0.0092 -0.752349,4.17e-4 -0.958653,0.02126 -0.206319,0.02084 -0.571856,0.07669 -0.812772,0.124622 -0.240495,0.04751 -0.629377,0.15047 -0.863598,0.228824 -0.234663,0.07794 -0.611872,0.234663 -0.838634,0.348033 -0.22674,0.113369 -0.452654,0.231327 -0.501419,0.261755 l -0.08919,0.05544 0.01084,6.835617 0.01042,6.835615 0.458486,0.23841 c 0.252168,0.13129 0.689394,0.31427 0.971173,0.40681 0.282176,0.0925 0.732326,0.20964 1.000334,0.2605 0.405966,0.0767 0.634377,0.0917 1.36294,0.0917 0.782336,-4.2e-4 0.937364,-0.0125 1.458821,-0.11421 0.32094,-0.063 0.616453,-0.12421 0.656469,-0.1363 l 0.07294,-0.0221 V 92.348514 l -0.302184,-0.07003 c -0.166303,-0.03793 -0.470991,-0.09837 -0.67731,-0.133798 -0.206319,-0.03543 -0.637713,-0.07169 -0.958653,-0.08128 z m 61.957895,-0.01542 c -0.14879,0.0037 -0.33636,0.01334 -0.4168,0.02167 -0.0804,0.0083 -0.27718,0.03418 -0.43765,0.05752 -0.16047,0.02292 -0.50267,0.08086 -0.76067,0.12879 l -0.46891,0.0867 V 107.4987 l 0.0729,0.0221 c 0.04,0.0121 0.33553,0.0734 0.65647,0.1363 0.52143,0.1017 0.67648,0.11378 1.45882,0.1142 0.734,0 0.95618,-0.015 1.37546,-0.0938 0.2751,-0.0517 0.72525,-0.16922 1.00034,-0.2605 0.27509,-0.0917 0.70648,-0.27385 0.95865,-0.40514 l 0.45849,-0.23799 0.0104,-6.83772 0.0109,-6.837266 -0.30261,-0.167554 c -0.1663,-0.09253 -0.4614,-0.235915 -0.65646,-0.318437 -0.19507,-0.08294 -0.51851,-0.197983 -0.71899,-0.255916 -0.2009,-0.05793 -0.51976,-0.133797 -0.70857,-0.168386 -0.18923,-0.03501 -0.55019,-0.08253 -0.80236,-0.105454 -0.25216,-0.02334 -0.58061,-0.0396 -0.72941,-0.03585 z m 8.0625,14.379056 -0.25342,-0.41806 -0.26759,0.31428 c -0.14755,0.17297 -0.40847,0.44889 -0.58061,0.6127 -0.17172,0.16339 -0.45932,0.41722 -0.63855,0.56352 -0.17964,0.14588 -0.53601,0.40555 -0.79193,0.57728 -0.25633,0.1713 -0.75647,0.45557 -1.11203,0.63146 -0.35512,0.17631 -0.88031,0.3993 -1.16706,0.49558 -0.28634,0.0967 -0.71773,0.22216 -0.95865,0.27926 -0.24049,0.0567 -0.62521,0.13212 -0.85445,0.16714 -0.22924,0.0346 -0.70732,0.0754 -1.06286,0.09 -0.39971,0.0163 -0.84448,0.007 -1.16705,-0.0241 -0.28635,-0.0275 -0.75528,-0.0975 -1.04202,-0.15547 -0.28634,-0.0575 -0.72732,-0.16756 -0.97949,-0.24384 -0.25217,-0.0767 -0.61771,-0.19881 -0.81277,-0.27134 -0.19507,-0.0725 -0.50309,-0.17714 -0.6844,-0.23216 -0.18173,-0.055 -0.50058,-0.13129 -0.70857,-0.16964 -0.2605,-0.0479 -0.60604,-0.07 -1.10783,-0.0705 -0.49808,0 -0.84823,0.0213 -1.10454,0.0679 -0.20632,0.0379 -0.54393,0.11671 -0.75025,0.1759 -0.20632,0.0588 -0.61895,0.22715 -0.91697,0.37429 -0.30052,0.14796 -0.70065,0.38722 -0.89861,0.53727 -0.1959,0.14879 -0.52767,0.44931 -0.7369,0.66813 -0.20925,0.21882 -0.49434,0.57061 -0.63272,0.78114 -0.13879,0.21048 -0.33553,0.55352 -0.43681,0.76194 -0.10129,0.2084 -0.24175,0.55227 -0.31219,0.76442 -0.0705,0.21215 -0.16964,0.5777 -0.22049,0.81277 -0.0779,0.35929 -0.0929,0.55977 -0.0946,1.26084 -0.002,0.6398 0.0158,0.91862 0.0725,1.19914 0.0408,0.2009 0.13046,0.53851 0.19923,0.75025 0.0687,0.21174 0.21633,0.57228 0.32803,0.80153 0.1117,0.22924 0.32178,0.58436 0.46724,0.78901 0.14546,0.20506 0.41806,0.52767 0.60562,0.7169 0.18714,0.18965 0.49266,0.45766 0.67897,0.59561 0.1859,0.13797 0.5206,0.35221 0.74275,0.47642 0.22258,0.12379 0.58312,0.29551 0.8007,0.38179 0.21799,0.0859 0.6398,0.23883 0.93782,0.34011 0.29801,0.10129 0.804,0.25884 1.1241,0.35012 0.32053,0.0913 0.81734,0.22091 1.10453,0.28801 0.28719,0.0676 0.78489,0.17089 1.10581,0.22966 0.32094,0.0592 0.86488,0.14339 1.20874,0.18673 0.34387,0.0438 0.86907,0.0984 1.16706,0.12213 0.29801,0.0233 0.88863,0.0546 1.31294,0.0692 0.43806,0.015 1.10326,0.006 1.5397,-0.0205 0.42265,-0.0262 1.06998,-0.0854 1.43798,-0.13254 0.36804,-0.0467 0.96825,-0.14088 1.33378,-0.20882 0.36513,-0.0684 0.99202,-0.20799 1.39255,-0.31094 0.40056,-0.10253 1.02073,-0.28175 1.37794,-0.39846 0.35761,-0.11671 0.95948,-0.33386 1.33752,-0.48266 0.37847,-0.1488 1.06368,-0.45307 1.52382,-0.67606 0.45973,-0.22341 1.08789,-0.55227 1.3963,-0.73108 0.30802,-0.17881 0.804,-0.48433 1.10206,-0.67856 0.29802,-0.19465 0.79523,-0.54226 1.10454,-0.77237 0.30969,-0.23008 0.77611,-0.59728 1.03699,-0.81524 0.26092,-0.21841 0.66355,-0.57645 0.89531,-0.79568 0.23174,-0.21925 0.64979,-0.63688 0.92949,-0.92822 0.27967,-0.29135 0.68731,-0.74316 0.90573,-1.00363 0.21841,-0.26093 0.58103,-0.71941 0.80527,-1.01908 0.22424,-0.29969 0.44015,-0.6002 0.47974,-0.66731 l 0.0713,-0.12254 -0.57144,-0.0271 c -0.31469,-0.015 -0.79695,-0.0633 -1.072,-0.10754 -0.27509,-0.0438 -0.66897,-0.11795 -0.87529,-0.16463 -0.20632,-0.0467 -0.50642,-0.12463 -0.66689,-0.1734 -0.16047,-0.0487 -0.47933,-0.15547 -0.70857,-0.23633 -0.22925,-0.0813 -0.62104,-0.23966 -0.87072,-0.3522 -0.25009,-0.11212 -0.64397,-0.3101 -0.87529,-0.43931 -0.23175,-0.12921 -0.57978,-0.33969 -0.77357,-0.46807 -0.19339,-0.12796 -0.51559,-0.35471 -0.71524,-0.50351 -0.19965,-0.14921 -0.58019,-0.46473 -0.84531,-0.70148 -0.26467,-0.23716 -0.66522,-0.63688 -0.88908,-0.88819 -0.22425,-0.25175 -0.56686,-0.67022 -0.76195,-0.93031 -0.19465,-0.26009 -0.46807,-0.66105 -0.60728,-0.89156 z m -78.136115,-0.24739 c -0.01667,-0.007 -0.04293,0.0262 -0.05793,0.0742 -0.01501,0.0475 -0.199647,0.34428 -0.409722,0.65938 -0.210487,0.31469 -0.530596,0.75648 -0.711906,0.9816 -0.180891,0.22507 -0.53726,0.61895 -0.791931,0.87574 -0.254252,0.25675 -0.675226,0.64022 -0.934515,0.85153 -0.259672,0.21174 -0.709822,0.5431 -1.000334,0.73607 -0.290932,0.1934 -0.76277,0.4735 -1.049512,0.62271 -0.286344,0.1488 -0.680225,0.33928 -0.875292,0.42264 -0.194647,0.0834 -0.598117,0.2355 -0.896133,0.33804 -0.298016,0.10211 -0.757372,0.24049 -1.021174,0.30676 -0.26342,0.0667 -0.68815,0.15839 -0.943211,0.20424 -0.255084,0.0459 -0.705234,0.10504 -1.000334,0.13129 -0.2951,0.0262 -0.627713,0.0601 -0.738999,0.075 l -0.20257,0.0275 0.358453,0.50267 c 0.197151,0.27633 0.556856,0.74524 0.799053,1.04201 0.242579,0.29635 0.683142,0.804 0.979044,1.12748 0.295932,0.32343 0.815245,0.84238 1.154162,1.15371 0.338445,0.31136 0.765694,0.69107 0.949058,0.84366 0.183395,0.15296 0.577277,0.46182 0.875293,0.68605 0.298016,0.22425 0.79523,0.57645 1.104536,0.78234 0.309688,0.20548 0.797328,0.51059 1.083695,0.67731 0.286764,0.16672 0.849429,0.46765 1.250418,0.66855 0.401385,0.20049 0.95573,0.45974 1.232051,0.57603 0.276756,0.11587 0.754823,0.30343 1.062855,0.4168 0.308016,0.11337 0.820718,0.28385 1.139094,0.3793 0.318437,0.095 0.843583,0.23632 1.167057,0.31427 0.323444,0.0775 0.860299,0.18798 1.19247,0.24592 0.332612,0.0579 0.829413,0.13338 1.104535,0.16797 0.275092,0.0345 0.800253,0.0846 1.167057,0.11087 0.412638,0.0296 1.15956,0.0388 1.958988,0.0246 0.710654,-0.0129 1.554701,-0.0516 1.875626,-0.0863 0.320941,-0.0346 0.855727,-0.10295 1.187897,-0.15171 0.332193,-0.0487 0.922371,-0.15464 1.31084,-0.2355 0.388049,-0.0804 1.063304,-0.24675 1.500501,-0.36887 0.436814,-0.12213 1.017876,-0.3001 1.291648,-0.39514 0.27384,-0.0946 0.686478,-0.24716 0.916973,-0.33844 0.230496,-0.0913 0.560185,-0.24175 0.731915,-0.33428 0.172142,-0.0925 0.47141,-0.27426 0.665637,-0.40389 0.194235,-0.13004 0.5481,-0.42347 0.786084,-0.6523 0.237579,-0.22841 0.552688,-0.5756 0.699402,-0.77109 0.147134,-0.19507 0.378873,-0.57436 0.514755,-0.84193 0.136294,-0.26801 0.303849,-0.67106 0.373041,-0.89613 0.06877,-0.22508 0.158807,-0.57811 0.199647,-0.78444 0.05627,-0.2826 0.07377,-0.5656 0.07169,-1.14622 -0.0021,-0.62979 -0.01918,-0.84943 -0.0942,-1.19831 -0.05044,-0.23508 -0.14963,-0.60062 -0.220907,-0.81277 -0.07086,-0.21216 -0.21299,-0.55436 -0.31594,-0.76068 -0.10295,-0.20631 -0.286764,-0.52517 -0.40847,-0.70857 -0.121706,-0.18339 -0.333025,-0.46223 -0.469739,-0.61978 -0.136713,-0.15756 -0.377629,-0.39847 -0.535175,-0.53519 -0.157555,-0.1367 -0.426807,-0.34219 -0.598949,-0.4564 -0.171722,-0.1142 -0.481411,-0.28884 -0.68773,-0.38804 -0.206319,-0.0992 -0.553932,-0.23717 -0.77274,-0.30635 -0.218403,-0.0696 -0.565604,-0.16047 -0.771091,-0.20174 -0.288016,-0.0575 -0.56894,-0.0746 -1.227928,-0.0742 -0.72941,7.5e-4 -0.918247,0.0146 -1.292098,0.0954 -0.240916,0.0516 -0.850254,0.23341 -1.354619,0.40388 -0.504336,0.17006 -1.130399,0.35762 -1.391278,0.41597 -0.260923,0.0588 -0.673561,0.1363 -0.916973,0.17215 -0.26842,0.0392 -0.737746,0.0654 -1.192919,0.0663 -0.483915,0.002 -0.942836,-0.0238 -1.292098,-0.0705 -0.298017,-0.04 -0.801902,-0.13755 -1.119979,-0.21757 -0.318437,-0.0796 -0.81607,-0.23467 -1.106635,-0.34429 -0.290512,-0.10962 -0.752349,-0.31385 -1.026571,-0.4539 -0.27384,-0.14005 -0.676058,-0.37012 -0.894034,-0.511 -0.217571,-0.14047 -0.571444,-0.3968 -0.785709,-0.56852 -0.214655,-0.17215 -0.52226,-0.43724 -0.683562,-0.58937 -0.161722,-0.15214 -0.425974,-0.42681 -0.586864,-0.6102 -0.161303,-0.1834 -0.306772,-0.33928 -0.323857,-0.34637 z m 54.189265,12.47569 c -0.30969,-0.009 -0.72065,0.003 -0.91367,0.0259 -0.19299,0.0229 -0.56186,0.0954 -0.81982,0.16047 -0.25801,0.065 -0.66272,0.2009 -0.89943,0.30135 -0.23675,0.10044 -0.56645,0.26217 -0.73233,0.35928 -0.16589,0.0975 -0.44849,0.2876 -0.62854,0.42306 -0.17965,0.13588 -0.49642,0.42389 -0.70399,0.64063 -0.20716,0.21716 -0.48016,0.55102 -0.60687,0.74234 -0.12629,0.19131 -0.29844,0.48515 -0.38263,0.65354 -0.0842,0.1684 -0.21591,0.49642 -0.29343,0.72941 -0.0775,0.233 -0.17048,0.56978 -0.20674,0.74901 -0.0367,0.1788 -0.0867,0.57269 -0.1117,0.87529 -0.0267,0.32552 -0.0334,0.84733 -0.0166,1.2792 0.0154,0.40097 0.0559,0.88864 0.0896,1.0837 0.0337,0.19465 0.17214,0.67689 0.30718,1.07118 0.13463,0.39471 0.29261,0.9103 0.35054,1.14621 0.0575,0.23633 0.1338,0.59603 0.16923,0.79988 0.0355,0.2034 0.0838,0.6298 0.10753,0.94741 0.0308,0.40889 0.0304,0.75565 -0.002,1.18999 -0.0254,0.33721 -0.0825,0.82485 -0.12754,1.08325 -0.0451,0.25842 -0.14797,0.70023 -0.22883,0.98159 -0.0809,0.28135 -0.21466,0.68064 -0.29677,0.88699 -0.0821,0.20674 -0.24216,0.56102 -0.35553,0.78736 -0.11337,0.22674 -0.3101,0.58061 -0.43723,0.78608 -0.12712,0.20549 -0.34178,0.5206 -0.47682,0.69982 -0.13505,0.17923 -0.40347,0.50309 -0.59645,0.71983 -0.19299,0.21674 -0.56311,0.57644 -0.82275,0.79897 -0.25926,0.22258 -0.47599,0.41681 -0.48141,0.43223 -0.005,0.015 0.17047,0.13755 0.39055,0.27218 0.22049,0.13421 0.61896,0.40889 0.88526,0.6102 0.26676,0.2009 0.65355,0.52017 0.85985,0.70899 0.20632,0.18881 0.54977,0.5331 0.76315,0.76524 0.2134,0.23174 0.52934,0.60562 0.70189,0.82986 0.17256,0.22467 0.45307,0.62563 0.62313,0.89156 0.17006,0.26593 0.44723,0.75775 0.61645,1.09247 0.16923,0.33512 0.39305,0.82567 0.49767,1.09119 0.1042,0.26509 0.25634,0.70149 0.33762,0.96953 0.0813,0.268 0.19381,0.68898 0.25049,0.93489 0.0563,0.24632 0.14005,0.71023 0.18632,1.03114 0.0463,0.32094 0.0967,0.77566 0.11212,1.01075 0.0158,0.23508 0.0367,0.42723 0.0471,0.42723 0.01,0 0.23715,-0.14963 0.50474,-0.33219 0.26718,-0.18256 0.77694,-0.56436 1.13205,-0.84823 0.35554,-0.28343 0.90865,-0.75902 1.22958,-1.05664 0.32094,-0.29718 0.79943,-0.77438 1.06285,-1.06038 0.26384,-0.28592 0.62355,-0.69231 0.80026,-0.9028 0.17631,-0.21008 0.49141,-0.60854 0.70023,-0.88489 0.2084,-0.27592 0.57269,-0.79695 0.80902,-1.15746 0.23633,-0.36054 0.5481,-0.86195 0.69314,-1.11413 0.14505,-0.25217 0.41806,-0.76817 0.60646,-1.14622 0.1884,-0.37846 0.43098,-0.89403 0.53852,-1.14621 0.10753,-0.25217 0.25216,-0.60854 0.32094,-0.79193 0.0692,-0.1834 0.20923,-0.57728 0.31135,-0.8753 0.10253,-0.29801 0.26967,-0.84193 0.37137,-1.20873 0.10212,-0.36679 0.2505,-0.98572 0.33012,-1.37546 0.0792,-0.38972 0.18131,-0.95244 0.22632,-1.25042 0.0454,-0.29802 0.11504,-0.87027 0.15463,-1.27126 0.0529,-0.53185 0.0721,-1.10206 0.0717,-2.10487 -7.5e-4,-0.75647 -0.0242,-1.66595 -0.0525,-2.02151 -0.0288,-0.35554 -0.0879,-0.93654 -0.13254,-1.2921 -0.0446,-0.35553 -0.12963,-0.91824 -0.18924,-1.25041 -0.0596,-0.3322 -0.19047,-0.93362 -0.29092,-1.33626 -0.10045,-0.40263 -0.27426,-1.0028 -0.38639,-1.33378 -0.11169,-0.33094 -0.28092,-0.7944 -0.37553,-1.02994 -0.0946,-0.2355 -0.25884,-0.60103 -0.36471,-0.81277 -0.10628,-0.21174 -0.27759,-0.51601 -0.38138,-0.67648 -0.10337,-0.16047 -0.2976,-0.42597 -0.43139,-0.58978 -0.13421,-0.16422 -0.38846,-0.43139 -0.5656,-0.59478 -0.17715,-0.16298 -0.47267,-0.39722 -0.65731,-0.5206 -0.18423,-0.12295 -0.48516,-0.29884 -0.66856,-0.39054 -0.18339,-0.0913 -0.49683,-0.22383 -0.69606,-0.29426 -0.19965,-0.0705 -0.56519,-0.16714 -0.81277,-0.2155 -0.26759,-0.0516 -0.67857,-0.0938 -1.01286,-0.10336 z m -29.822612,0.16464 c -0.528924,-0.0117 -0.860674,0.002 -1.123727,0.0442 -0.205487,0.0334 -0.536428,0.10753 -0.735243,0.16463 -0.198402,0.0575 -0.512671,0.16798 -0.69773,0.24592 -0.184646,0.0779 -0.457234,0.20966 -0.60562,0.2926 -0.147966,0.0829 -0.425562,0.26634 -0.616873,0.40763 -0.190899,0.14131 -0.497251,0.41098 -0.680645,0.59895 -0.183395,0.18841 -0.439731,0.49017 -0.569773,0.67065 -0.130042,0.18048 -0.322604,0.48141 -0.427645,0.66814 -0.105034,0.18672 -0.282596,0.57102 -0.394302,0.854 -0.112118,0.28301 -0.3101,0.84276 -0.44015,1.2442 -0.130462,0.40096 -0.318856,1.05745 -0.41889,1.45882 -0.100453,0.40096 -0.229243,0.97327 -0.286764,1.27126 -0.05752,0.29801 -0.142546,0.80445 -0.188814,1.12537 -0.04585,0.32094 -0.111706,0.89284 -0.145882,1.27126 -0.03418,0.37804 -0.07419,1.05371 -0.08878,1.5005 -0.01542,0.46808 -0.0071,1.13872 0.02001,1.58139 0.02584,0.42265 0.08503,1.06998 0.131713,1.43798 0.0471,0.36804 0.131714,0.92237 0.187983,1.23205 0.05669,0.30927 0.187143,0.90528 0.28968,1.32381 0.102537,0.41847 0.291344,1.08452 0.41931,1.47966 0.128377,0.39513 0.355117,1.02785 0.504755,1.40627 0.149218,0.37804 0.443898,1.04411 0.654385,1.47966 0.210487,0.43556 0.538931,1.06413 0.72941,1.3963 0.190479,0.33261 0.505999,0.84823 0.700654,1.14622 0.194647,0.29801 0.565192,0.82319 0.823641,1.16705 0.25884,0.34387 0.620209,0.80318 0.803626,1.02118 0.183395,0.21757 0.518091,0.59312 0.744418,0.83406 0.225908,0.24133 0.64563,0.66355 0.931966,0.93864 0.286764,0.27509 0.738167,0.68231 1.003633,0.90445 0.265504,0.22216 0.728158,0.5877 1.027846,0.81195 0.299681,0.22423 0.600201,0.44014 0.66731,0.47974 l 0.122538,0.0713 0.02501,-0.5506 c 0.01376,-0.30302 0.05544,-0.7573 0.09253,-1.00948 0.03709,-0.25217 0.105034,-0.6273 0.15047,-0.83362 0.04543,-0.20631 0.13963,-0.57227 0.208823,-0.81277 0.06961,-0.24091 0.221739,-0.68147 0.338445,-0.97949 0.117125,-0.29802 0.336781,-0.78571 0.488915,-1.0837 0.152134,-0.29801 0.395133,-0.72941 0.539763,-0.95865 0.144631,-0.22924 0.418058,-0.62312 0.607705,-0.87529 0.189227,-0.25217 0.541016,-0.6744 0.781061,-0.93782 0.240083,-0.26383 0.628125,-0.64813 0.861949,-0.85445 0.233831,-0.20632 0.642713,-0.53726 0.908202,-0.73524 0.265504,-0.1984 0.66647,-0.47183 0.89111,-0.6077 l 0.40847,-0.24759 -0.395134,-0.34428 c -0.217571,-0.18923 -0.552268,-0.52017 -0.743998,-0.73525 -0.191311,-0.21507 -0.455571,-0.53392 -0.586445,-0.70815 -0.131294,-0.17423 -0.350536,-0.49517 -0.487663,-0.71274 -0.136713,-0.21757 -0.376377,-0.6573 -0.532259,-0.97702 -0.156302,-0.31927 -0.368873,-0.83818 -0.473075,-1.15334 -0.103782,-0.3151 -0.236327,-0.78863 -0.294268,-1.05198 -0.05793,-0.26384 -0.12921,-0.64813 -0.158386,-0.85445 -0.03084,-0.21632 -0.05293,-0.754 -0.05168,-1.27126 0.0013,-0.72775 0.01918,-0.99786 0.0942,-1.43798 0.05044,-0.29802 0.147134,-0.74817 0.214235,-1.00033 0.06669,-0.25217 0.243832,-0.80985 0.393462,-1.23955 0.149218,-0.42973 0.313024,-0.99239 0.363873,-1.25042 0.07377,-0.37513 0.09212,-0.61604 0.09253,-1.19877 0,-0.4985 -0.02167,-0.84823 -0.06835,-1.10453 -0.03793,-0.20632 -0.116705,-0.54393 -0.17589,-0.75025 -0.05877,-0.20632 -0.227159,-0.61896 -0.374293,-0.91698 -0.147967,-0.30052 -0.38721,-0.70065 -0.53726,-0.8986 -0.148798,-0.1959 -0.448067,-0.52642 -0.665638,-0.73441 -0.217159,-0.20799 -0.556436,-0.48516 -0.753549,-0.61646 -0.197151,-0.13088 -0.541015,-0.32844 -0.764419,-0.43889 -0.223411,-0.11004 -0.57978,-0.258 -0.791481,-0.32845 -0.211739,-0.0705 -0.568108,-0.16755 -0.791932,-0.21549 -0.30052,-0.0646 -0.602284,-0.0917 -1.157086,-0.10378 z m -20.240575,5.06584 h -0.08628 l 0.02001,1.99025 c 0.01792,1.78102 0.02918,2.0386 0.106286,2.44874 0.0471,0.25216 0.134629,0.62729 0.194234,0.83361 0.0596,0.20632 0.190067,0.57685 0.28968,0.82364 0.09961,0.24675 0.277596,0.62187 0.395134,0.83361 0.117957,0.21173 0.335109,0.55393 0.482662,0.76022 0.147547,0.20632 0.393462,0.51559 0.546016,0.68773 0.152966,0.17172 0.438066,0.45807 0.633965,0.63563 0.196319,0.17756 0.526427,0.4439 0.73441,0.59228 0.207571,0.14797 0.551016,0.36595 0.76277,0.4835 0.211739,0.11795 0.586864,0.29593 0.833612,0.39555 0.246748,0.0996 0.617293,0.23007 0.823642,0.28968 0.206318,0.0596 0.581444,0.14713 0.833611,0.19423 0.410134,0.0771 0.667722,0.0884 2.448735,0.10629 l 1.990248,0.02 v -0.0859 c 0,-0.0475 -0.04668,-0.37263 -0.103369,-0.72315 -0.0571,-0.35012 -0.12379,-0.89944 -0.148386,-1.22044 -0.02584,-0.33719 -0.03418,-0.98781 -0.02001,-1.54218 0.01376,-0.52726 0.04376,-1.23085 0.06669,-1.56302 0.0225,-0.33219 0.0521,-0.66523 0.06544,-0.73983 l 0.02376,-0.13546 -1.598855,-0.002 c -1.371712,-0.002 -1.637613,-0.0125 -1.873153,-0.0738 -0.150882,-0.0396 -0.380545,-0.13629 -0.510587,-0.21506 -0.130042,-0.0784 -0.310101,-0.21883 -0.400554,-0.31136 -0.09003,-0.0925 -0.229663,-0.27801 -0.3101,-0.4118 -0.08045,-0.13422 -0.175059,-0.37221 -0.210907,-0.52935 -0.05252,-0.23132 -0.06503,-0.58311 -0.06503,-1.85103 v -1.56513 l -0.177142,7.5e-4 c -0.09753,4.2e-4 -0.430143,0.0292 -0.739831,0.0638 -0.309268,0.0346 -0.965775,0.0742 -1.45882,0.088 -0.536016,0.015 -1.159111,0.005 -1.550503,-0.0233 -0.360118,-0.0262 -0.937364,-0.0946 -1.282503,-0.1513 -0.345529,-0.0567 -0.66689,-0.10295 -0.714822,-0.10295 z m 69.726527,0.005 c -0.0746,0.003 -0.38846,0.0483 -0.69815,0.10129 -0.30968,0.0534 -0.87237,0.11921 -1.25041,0.14713 -0.45266,0.0329 -1.0795,0.0409 -1.83395,0.0229 -0.63021,-0.0146 -1.27748,-0.0459 -1.43798,-0.0684 -0.16047,-0.0229 -0.34261,-0.0521 -0.40472,-0.065 l -0.11295,-0.0238 -0.0121,1.74519 -0.0121,1.74556 -0.16089,0.32511 c -0.1042,0.21049 -0.24383,0.40847 -0.39597,0.5606 -0.14004,0.13963 -0.34553,0.28843 -0.50642,0.36637 -0.14879,0.0721 -0.3697,0.15172 -0.49141,0.17715 -0.13796,0.0288 -0.80655,0.0459 -1.78184,0.0459 h -1.55928 v 0.24467 c 0,0.13463 0.03,0.52392 0.0671,0.86487 0.0508,0.47141 0.0609,0.84568 0.043,1.558 -0.0133,0.51976 -0.0708,1.393 -0.12921,1.95899 -0.0583,0.56143 -0.11711,1.10079 -0.13129,1.19832 l -0.0259,0.17714 h 1.62014 c 0.89074,0 1.826,-0.0196 2.07818,-0.0433 0.25217,-0.0238 0.64605,-0.0809 0.8753,-0.12713 0.22924,-0.0462 0.64188,-0.1588 0.91697,-0.24967 0.27509,-0.0913 0.70649,-0.26634 0.95865,-0.38971 0.25217,-0.12296 0.63688,-0.34095 0.85446,-0.48391 0.21799,-0.14339 0.52934,-0.36929 0.69273,-0.50267 0.16338,-0.13338 0.44264,-0.38846 0.62104,-0.56728 0.17839,-0.17838 0.43723,-0.46557 0.57519,-0.63729 0.13796,-0.17214 0.36179,-0.48141 0.49808,-0.68773 0.1363,-0.20632 0.34803,-0.58186 0.47099,-0.83489 0.12255,-0.253 0.29802,-0.68439 0.3893,-0.95865 0.0913,-0.27426 0.20382,-0.68648 0.25009,-0.9157 0.0462,-0.22924 0.10336,-0.62312 0.12712,-0.87529 0.0238,-0.25217 0.0433,-1.21331 0.0433,-2.13613 v -1.67764 z m -34.75381,5.07979 h -7.579723 l -0.02209,0.0729 c -0.01208,0.04 -0.07336,0.33552 -0.136294,0.65647 -0.101698,0.52142 -0.11379,0.67647 -0.114202,1.45882 0,0.72857 0.01501,0.957 0.0917,1.36294 0.05085,0.268 0.167975,0.71815 0.260504,1.00033 0.09253,0.28176 0.275512,0.71899 0.406806,0.97117 l 0.238411,0.45849 6.835608,0.0104 6.83562,0.0109 0.0554,-0.0892 c 0.0304,-0.0488 0.14839,-0.27467 0.26176,-0.50142 0.11337,-0.22674 0.27009,-0.60395 0.34803,-0.83863 0.0779,-0.23425 0.17964,-0.61354 0.22549,-0.84276 0.0463,-0.22925 0.10545,-0.66064 0.13254,-0.95866 0.028,-0.31094 0.0367,-0.73315 0.0204,-0.99036 -0.0154,-0.24675 -0.0451,-0.55644 -0.0663,-0.68773 -0.0213,-0.13171 -0.0792,-0.43139 -0.12837,-0.66647 l -0.0896,-0.42722 z m 0.12754,10.06706 c -0.469736,-0.009 -1.013675,4.2e-4 -1.208734,0.0205 -0.194647,0.0204 -0.53226,0.0671 -0.750251,0.10378 -0.217571,0.0371 -0.578528,0.11337 -0.801526,0.16964 -0.222992,0.0563 -0.578941,0.16047 -0.790657,0.23133 -0.211739,0.0708 -0.55894,0.2034 -0.771541,0.29468 -0.212151,0.0913 -0.596865,0.27885 -0.854452,0.41723 -0.258,0.13837 -0.638133,0.36428 -0.844857,0.50183 -0.206738,0.13754 -0.553932,0.39221 -0.771915,0.56561 -0.217571,0.17339 -0.594368,0.5135 -0.836536,0.75565 -0.242579,0.24216 -0.591032,0.62937 -0.774389,0.86067 -0.183814,0.23133 -0.442234,0.58478 -0.57436,0.78526 -0.132126,0.20048 -0.343033,0.55518 -0.468487,0.78818 -0.125462,0.233 -0.309688,0.61271 -0.40889,0.84366 -0.09961,0.23133 -0.240083,0.59729 -0.312604,0.81277 -0.07252,0.21591 -0.186311,0.61771 -0.252587,0.89284 -0.06627,0.27509 -0.153386,0.71565 -0.193395,0.97949 -0.05418,0.35471 -0.07336,0.734 -0.07336,1.45882 0,0.72816 0.01876,1.10244 0.07377,1.45882 0.04043,0.26384 0.110454,0.63897 0.155882,0.83361 0.04502,0.19465 0.130042,0.51809 0.188395,0.71857 0.05835,0.20007 0.181311,0.55644 0.272588,0.79194 0.0917,0.23508 0.265092,0.62437 0.385546,0.86532 0.120454,0.24049 0.328024,0.61562 0.46057,0.83316 0.132958,0.21799 0.370538,0.56769 0.528092,0.77731 0.157966,0.20966 0.443066,0.55686 0.634377,0.77109 0.191311,0.21466 0.495999,0.52268 0.677729,0.6844 0.181731,0.16214 0.461403,0.39889 0.621873,0.52684 0.160471,0.12755 0.470159,0.35054 0.68773,0.49517 0.217991,0.14505 0.658553,0.3993 0.979494,0.56519 0.32094,0.16589 0.780237,0.37804 1.020725,0.47141 0.240495,0.0938 0.632712,0.22632 0.871993,0.29468 0.238832,0.0687 0.614369,0.16047 0.834062,0.20382 0.219655,0.0438 0.577696,0.1042 0.79523,0.13504 0.236747,0.0334 0.764869,0.055 1.312945,0.0542 0.65646,-7.5e-4 1.0591,-0.0225 1.41714,-0.0754 0.27509,-0.0409 0.6598,-0.11087 0.85445,-0.15547 0.19506,-0.045 0.52309,-0.13046 0.72941,-0.19006 0.20632,-0.0596 0.56269,-0.18257 0.79193,-0.27343 0.22924,-0.0905 0.63563,-0.27425 0.9028,-0.40847 0.26717,-0.13462 0.6423,-0.34219 0.83362,-0.4614 0.19131,-0.11921 0.51933,-0.34553 0.72857,-0.50225 0.20965,-0.15714 0.55685,-0.44182 0.77109,-0.63313 0.21465,-0.19132 0.52268,-0.496 0.6844,-0.67773 0.16213,-0.18172 0.39888,-0.4614 0.52684,-0.62187 0.12754,-0.16047 0.35053,-0.47016 0.49517,-0.68773 0.14504,-0.21799 0.3993,-0.65856 0.5656,-0.9795 0.16589,-0.32094 0.37054,-0.76194 0.45474,-0.97949 0.0838,-0.21799 0.20632,-0.56977 0.27175,-0.78196 0.0654,-0.21215 0.16464,-0.60603 0.22091,-0.87529 0.0559,-0.26925 0.12671,-0.66772 0.15713,-0.88527 0.0329,-0.23507 0.055,-0.76861 0.0542,-1.31293 -7.5e-4,-0.6498 -0.0229,-1.06286 -0.0746,-1.41714 -0.04,-0.2751 -0.11004,-0.65981 -0.15547,-0.85446 -0.045,-0.19506 -0.13004,-0.51809 -0.18839,-0.71857 -0.0583,-0.20006 -0.18007,-0.55352 -0.27051,-0.78488 -0.09,-0.23175 -0.25967,-0.61145 -0.37679,-0.84486 -0.11671,-0.233 -0.26093,-0.50809 -0.32011,-0.61104 -0.0592,-0.10337 -0.21882,-0.35637 -0.3547,-0.56269 -0.13588,-0.20632 -0.35137,-0.50642 -0.47891,-0.66689 -0.12796,-0.16047 -0.36471,-0.44015 -0.52684,-0.62187 -0.16172,-0.18173 -0.46975,-0.48641 -0.6844,-0.67773 -0.21424,-0.19131 -0.56394,-0.47849 -0.77694,-0.63854 -0.21299,-0.16005 -0.59103,-0.41473 -0.83983,-0.56561 -0.24884,-0.1513 -0.6273,-0.35845 -0.84111,-0.46057 -0.21383,-0.10212 -0.5702,-0.25759 -0.79193,-0.34553 -0.22174,-0.088 -0.57186,-0.20882 -0.77814,-0.26842 -0.20632,-0.06 -0.53435,-0.14589 -0.72941,-0.1909 -0.19465,-0.0451 -0.55102,-0.11212 -0.79193,-0.1488 -0.24926,-0.0379 -0.80573,-0.0738 -1.2921,-0.0825 z"
     id="icon" /></svg>